<?xml version="1.0" encoding="UTF-8" standalone="no"?>
<!DOCTYPE svg PUBLIC "-//W3C//DTD SVG 20010904//EN"
              "http://www.w3.org/TR/2001/REC-SVG-20010904/DTD/svg10.dtd">

<svg xmlns="http://www.w3.org/2000/svg"
     width="12.1in" height="9.57in"
     viewBox="0 0 1210 957">
  <path id="rightBig"
        fill="#F76C26" stroke="black" stroke-width="1"
        d="M 1208.00,0.00
           C 1208.00,0.00 1191.00,10.01 1191.00,10.01
             1191.00,10.01 1147.00,35.42 1147.00,35.42
             1147.00,35.42 977.00,133.60 977.00,133.60
             977.00,133.60 922.00,165.40 922.00,165.40
             905.05,175.44 905.02,173.04 905.00,183.00
             905.00,183.00 905.00,471.00 905.00,471.00
             904.98,480.55 904.61,479.41 890.00,487.72
             890.00,487.72 849.00,511.42 849.00,511.42
             849.00,511.42 670.00,614.72 670.00,614.72
             670.00,614.72 621.00,643.00 621.00,643.00
             617.65,644.93 606.99,650.27 605.57,653.38
             604.86,654.94 605.00,658.23 605.00,660.00
             605.00,660.00 605.00,957.00 605.00,957.00
             605.00,957.00 664.00,923.42 664.00,923.42
             664.00,923.42 780.00,856.42 780.00,856.42
             780.00,856.42 974.00,744.42 974.00,744.42
             974.00,744.42 1068.00,690.20 1068.00,690.20
             1068.00,690.20 1176.00,627.85 1176.00,627.85
             1176.00,627.85 1198.00,615.15 1198.00,615.15
             1198.00,615.15 1208.01,608.47 1208.01,608.47
             1208.01,608.47 1209.00,601.00 1209.00,601.00
             1209.00,601.00 1209.00,177.00 1209.00,177.00
             1209.00,177.00 1209.00,53.00 1209.00,53.00
             1209.00,53.00 1209.00,18.00 1209.00,18.00
             1209.00,18.00 1208.00,0.00 1208.00,0.00 Z" />
  <path id="leftBig"
         fill="#D32F09" stroke="black" stroke-width="1"
        d="M 0.00,0.00
           C 0.00,0.00 0.00,601.00 0.00,601.00
             0.00,601.00 0.99,608.47 0.99,608.47
             0.99,608.47 11.00,615.15 11.00,615.15
             11.00,615.15 33.00,627.85 33.00,627.85
             33.00,627.85 139.00,689.01 139.00,689.01
             139.00,689.01 449.00,868.01 449.00,868.01
             449.00,868.01 548.00,925.20 548.00,925.20
             548.00,925.20 583.00,945.42 583.00,945.42
             583.00,945.42 605.00,957.00 605.00,957.00
             605.00,957.00 605.00,661.00 605.00,661.00
             604.98,651.34 604.01,652.15 590.00,644.15
             590.00,644.15 549.00,620.58 549.00,620.58
             549.00,620.58 368.00,516.00 368.00,516.00
             368.00,516.00 320.00,488.28 320.00,488.28
             304.40,479.39 304.02,480.70 304.00,471.00
             304.00,471.00 304.00,183.00 304.00,183.00
             303.98,173.04 303.95,175.44 287.00,165.40
             287.00,165.40 233.00,134.20 233.00,134.20
             233.00,134.20 95.00,54.58 95.00,54.58
             95.00,54.58 42.00,23.99 42.00,23.99
             42.00,23.99 0.00,0.00 0.00,0.00 Z" />
  <path id="leftSmall"
        fill="#F76C26" stroke="black" stroke-width="1"
        d="M 302.00,174.00
           C 305.36,180.02 304.00,192.83 304.00,200.00
             304.00,200.00 304.00,260.00 304.00,260.00
             304.00,260.00 304.00,478.00 304.00,478.00
             304.00,478.00 341.00,457.01 341.00,457.01
             341.00,457.01 394.00,426.42 394.00,426.42
             394.00,426.42 534.00,345.60 534.00,345.60
             534.00,345.60 587.00,315.01 587.00,315.01
             603.62,305.25 603.98,307.23 604.00,297.00
             604.00,297.00 604.00,1.00 604.00,1.00
             604.00,1.00 575.00,16.72 575.00,16.72
             575.00,16.72 513.00,52.58 513.00,52.58
             513.00,52.58 372.00,133.85 372.00,133.85
             372.00,133.85 302.00,174.00 302.00,174.00 Z" />
  <path id="rightSmall"
         fill="#D32F09" stroke="black" stroke-width="1"
        d="M 604.00,0.00
           C 604.00,0.00 604.00,297.00 604.00,297.00
             604.00,298.77 603.86,302.06 604.57,303.62
             606.00,306.75 617.54,312.41 621.00,314.42
             621.00,314.42 674.00,345.15 674.00,345.15
             674.00,345.15 833.00,436.85 833.00,436.85
             833.00,436.85 905.00,478.00 905.00,478.00
             905.00,478.00 905.00,260.00 905.00,260.00
             905.00,260.00 905.00,200.00 905.00,200.00
             905.00,192.83 903.64,180.02 907.00,174.00
             907.00,174.00 883.00,160.42 883.00,160.42
             883.00,160.42 837.00,133.85 837.00,133.85
             837.00,133.85 677.00,41.58 677.00,41.58
             677.00,41.58 627.00,12.72 627.00,12.72
             627.00,12.72 604.00,0.00 604.00,0.00 Z" />
</svg>
